# xmcd CD database file
#
# Track frame offsets:
#	150
#	16275
#	33804
#	41930
#	66554
#	83085
#	108507
#	143177
#
# Disc length: 2461 seconds
#
# Revision: 0
# Processed by: cddbd v1.5.2PL0 Copyright (c) Steve Scherf et al.
# Submitted via: CDex 1.70beta2
#
DISCID=6a099b08
DTITLE=PLOW - NO HIGHNESS BELOW THE CROWN
DYEAR=2013
DGENRE=Sludge Metal
TTITLE0=STORM
TTITLE1=DIG DEEP
TTITLE2=MARGARETH
TTITLE3=BLOODY TEMPER
TTITLE4=CAPTAIN FUNGUS
TTITLE5=LORD VAN GUS
TTITLE6=BETULA
TTITLE7=PENDULA
EXTD=YEAR: 2013
EXTT0=
EXTT1=
EXTT2=
EXTT3=
EXTT4=
EXTT5=
EXTT6=
EXTT7=
PLAYORDER=
